<svg width="142" height="40" viewBox="0 0 142 40" fill="none" xmlns="http://www.w3.org/2000/svg">
<ellipse cx="20.0282" cy="20" rx="20.0282" ry="20" fill="#5745B2"/>
<rect x="7.51025" y="25.5664" width="5.00706" height="5" fill="white"/>
<rect x="12.5178" y="20.5684" width="5.00706" height="5" fill="white"/>
<rect x="27.5391" y="25.5664" width="5.00706" height="5" fill="white"/>
<rect x="22.5315" y="20.5684" width="5.00706" height="5" fill="white"/>
<rect x="17.5247" y="15.5654" width="5.00706" height="5" fill="white"/>
<rect x="17.5247" y="5.56934" width="5.00706" height="5" fill="#CC66FF"/>
<path d="M138.709 29.8072V9.79688H141.801V29.8072H138.709Z" fill="#101010"/>
<path d="M119.134 29.8072L124.86 9.79688H130.299L135.995 29.8072H132.818L131.501 25.0905H123.657L122.34 29.8072H119.134ZM124.43 22.2319H130.728L127.808 11.7122H127.35L124.43 22.2319Z" fill="#101010"/>
<path d="M92.6495 29.8069L90.2449 15.7139H93.1934L94.9683 27.8344H95.4263L97.8882 15.7139H102.669L105.102 27.8344H105.56L107.335 15.7139H110.283L107.879 29.8069H102.926L100.493 17.7149H100.035L97.6019 29.8069H92.6495Z" fill="#101010"/>
<path d="M80.27 30.2088C78.8577 30.2088 77.5982 29.923 76.4913 29.3512C75.4035 28.7605 74.5447 27.9219 73.9149 26.8357C73.2851 25.7494 72.9702 24.463 72.9702 22.9765V22.5477C72.9702 21.0613 73.2851 19.7844 73.9149 18.7172C74.5447 17.6309 75.4035 16.7924 76.4913 16.2016C77.5982 15.6108 78.8577 15.3154 80.27 15.3154C81.6822 15.3154 82.9418 15.6108 84.0487 16.2016C85.1556 16.7924 86.0239 17.6309 86.6537 18.7172C87.2835 19.7844 87.5984 21.0613 87.5984 22.5477V22.9765C87.5984 24.463 87.2835 25.7494 86.6537 26.8357C86.0239 27.9219 85.1556 28.7605 84.0487 29.3512C82.9418 29.923 81.6822 30.2088 80.27 30.2088ZM80.27 27.5789C81.5677 27.5789 82.6174 27.1692 83.4189 26.3497C84.2395 25.5112 84.6498 24.3582 84.6498 22.8908V22.6335C84.6498 21.1661 84.2491 20.0226 83.4475 19.2032C82.646 18.3646 81.5868 17.9454 80.27 17.9454C78.9913 17.9454 77.9417 18.3646 77.1211 19.2032C76.3195 20.0226 75.9187 21.1661 75.9187 22.6335V22.8908C75.9187 24.3582 76.3195 25.5112 77.1211 26.3497C77.9417 27.1692 78.9913 27.5789 80.27 27.5789Z" fill="#101010"/>
<path d="M66.3342 29.8072V9.79688H69.2828V29.8072H66.3342Z" fill="#101010"/>
<path d="M50.8721 29.8072V9.79688H63.2387V12.5983H53.9637V18.3727H62.4944V21.1742H53.9637V29.8072H50.8721Z" fill="#101010"/>
</svg>
